<mxfile host="app.diagrams.net" modified="2023-07-03T11:03:45.227Z" agent="Mozilla/5.0 (Macintosh; Intel Mac OS X 10_15_7) AppleWebKit/537.36 (KHTML, like Gecko) Chrome/114.0.0.0 Safari/537.36" version="21.5.1" etag="hO9tkhKx8x2mFIy8ytSy" type="github">
  <diagram name="Page-1" id="VXXYaDk1oeflzZRn-z5i">
    <mxGraphModel>
      <root>
        <mxCell id="0" />
        <mxCell id="1" parent="0" />
      </root>
    </mxGraphModel>
  </diagram>
</mxfile>
